<svg id="ico1" xmlns="http://www.w3.org/2000/svg" width="164.787" height="133.206" viewBox="0 0 164.787 133.206">
  <path id="Path_1740" data-name="Path 1740" d="M118.975,17.553c-1.07-1.386-1.674-2.511-1.653-3.415.039-1.883-1.495-2.616-2.4-3.364A5.391,5.391,0,0,1,113,7.947c-.375-1.282.854-4.432.962-4.8.158-.558.481-1.628-1.316-.5-4.359,2.744-12.975,7.771-15.661,16.776-2.561,2.4-1.919,1.445-6.191,6.99C77.964,28.392,73.874,34.98,72.108,42.637A44.128,44.128,0,0,0,71.2,56.519a21.64,21.64,0,0,1-.584,7.632c-.321,1.388-.321,1.28-.853,1.44a58.074,58.074,0,0,0-5.984,1.915,15.9,15.9,0,0,1-5.6,1.122,33.394,33.394,0,0,0-8.7,1.494C44.631,71.58,41.812,72.632,37.3,72.9c-1.653.1-5.124-1.121-6.725-.748s-1.977,1.44-1.71,2.08.8,2.83,9.715,3.15S58.546,75.036,62.816,74.5,74.986,73.168,79.9,73s14.25.589,20.23.375,7.419-2.294,7.954-3.576c.479,2.139,3.306,1.653,4.376,1.493s.372.376,2.561-.583c1.976-2.936.158-4.112-1.869-5.931s-1.76-2.722-1.813-3.842a13.58,13.58,0,0,0-.748-4.11,35.652,35.652,0,0,1-1.44-8.113c-.108-2.666,2.989-7.843,4.054-11.953s.268-4,0-4.643c-.925-2.227-1.173-5.658.322-7.471,4.61.635,6.245-2.3,6.887-3.845S119.97,18.846,118.975,17.553ZM103.075,66.5c-1.671-.212-2.015-.041-3.3-.68a12.086,12.086,0,0,1,1.5-3.516,5.583,5.583,0,0,0,.6-3.345c.814.986,4.242,5.959,5.055,8.575A13.19,13.19,0,0,0,103.075,66.5Z" transform="translate(-2.685 -2.147)" fill="#e50019" fill-rule="evenodd"/>
  <path id="Rectangle_48" data-name="Rectangle 48" d="M9.407,0h33.26a9.407,9.407,0,0,1,9.407,9.407V46.9a0,0,0,0,1,0,0H0a0,0,0,0,1,0,0V9.407A9.407,9.407,0,0,1,9.407,0Z" transform="translate(3.402 85.31)" fill="none" stroke="#031731" stroke-miterlimit="10" stroke-width="2"/>
  <path id="Rectangle_49" data-name="Rectangle 49" d="M9.407,0h33.26a9.407,9.407,0,0,1,9.407,9.407V60.5a0,0,0,0,1,0,0H0a0,0,0,0,1,0,0V9.407A9.407,9.407,0,0,1,9.407,0Z" transform="translate(56.124 71.704)" fill="none" stroke="#031731" stroke-miterlimit="10" stroke-width="2"/>
  <path id="Rectangle_50" data-name="Rectangle 50" d="M9.407,0h33.26a9.407,9.407,0,0,1,9.407,9.407V43.443a0,0,0,0,1,0,0H0a0,0,0,0,1,0,0V9.407A9.407,9.407,0,0,1,9.407,0Z" transform="translate(108.352 88.763)" fill="none" stroke="#031731" stroke-miterlimit="10" stroke-width="2"/>
  <text id="_2" data-name="2" transform="translate(19.654 120.837)" fill="#e50019" font-size="30" font-family="Rubik-Light, Rubik" font-weight="300"><tspan x="0" y="0">2</tspan></text>
  <text id="_1" data-name="1" transform="translate(74.323 108.484)" fill="#e50019" font-size="30" font-family="Rubik-Light, Rubik" font-weight="300"><tspan x="0" y="0">1</tspan></text>
  <text id="_3" data-name="3" transform="translate(125.858 124.091)" fill="#e50019" font-size="30" font-family="Rubik-Light, Rubik" font-weight="300"><tspan x="0" y="0">3</tspan></text>
  <line id="Line_7" data-name="Line 7" x2="164.787" transform="translate(0 132.206)" fill="#fff" stroke="#031731" stroke-miterlimit="10" stroke-width="2"/>
</svg>
