<svg xmlns="http://www.w3.org/2000/svg" width="155.343" height="157.435" viewBox="0 0 155.343 157.435">
  <g id="ico2" transform="translate(0 1.014)">
    <g id="Group_157" data-name="Group 157" transform="translate(23.148)">
      <g id="Group_156" data-name="Group 156">
        <ellipse id="Ellipse_31" data-name="Ellipse 31" cx="19.942" cy="7.428" rx="19.942" ry="7.428" transform="translate(84.113 26.707)" fill="#e50019" stroke="#031731" stroke-linecap="round" stroke-linejoin="round" stroke-width="2"/>
        <path id="Path_121" data-name="Path 121" d="M86.448,106.648a25.312,25.312,0,0,1,.043-4.657,4.585,4.585,0,0,1,.555-2.373c2.658-4.159,11.838,4.061,13.447,6.308,2.779,3.88,3.534,9.4.487,13.363-1.316,1.71-3.827,3.868-5.376,1.13-1.02-1.8-2.261-3.512-3.423-5.225-1.525-2.247-3.738-4.283-5.067-6.581A5.638,5.638,0,0,1,86.448,106.648Z" transform="translate(-64.774 -49.301)" fill="#e50019" stroke="#031731" stroke-linecap="round" stroke-linejoin="round" stroke-width="2"/>
        <path id="Path_122" data-name="Path 122" d="M76.393,209.493a4.748,4.748,0,0,1-.916-2.257c-2.015-8.827-4.346-17.6-6.687-26.344-2.59-9.677-4.871-19.93-9.065-29.075-.047-.1-.094-.2-.143-.3-5.326-11.151-10.754-17.352-7.833-22.714,1.757-3.225,3.573-6.418,5.292-9.663,1.1-2.078,6.112-11.472,8.869-5.2.527,1.2.842,3.339,2.055,4.171,1.774,1.216,4.662.029,5.852-1.566,2.065-2.768,3.558-3.808,7.14,1.017,3.561,4.8,1.027,6.823,1,6.846-3.018,2.387-8.638,6.367-6.448,10.93.88,1.832,2.757,2.927,4.247,4.309,3.774,3.5.64,9.57.058,13.952-1.239,9.338.217,18.835,2.555,27.886,1.167,4.519,2.582,8.971,4.1,13.385.764,2.224,1.593,4.424,2.358,6.647.288.838,1.487,3.531,1.323,4.268-.732,3.253-7.983,3.927-10.521,4.118C77.9,210.024,76.989,210.1,76.393,209.493Z" transform="translate(-50.931 -54.519)" fill="#fff" stroke="#031731" stroke-miterlimit="10" stroke-width="2"/>
        <path id="Path_123" data-name="Path 123" d="M128.5,126.237c-3.481-5.34-6.355-11.075-6.307-17.342.027-3.505.984-7.036.323-10.478a10.671,10.671,0,0,0-3.071-5.588,27.707,27.707,0,0,0-3.335-2.185c-1.5-1.1-1.383-1.849-1.486-3.588a20.263,20.263,0,0,0-.321-3.548,18.023,18.023,0,0,0-2.747-6.016,15.979,15.979,0,0,0-4.506-4.262c-1.37-.88-5.354-1.618-5.332-3.426.019-1.512,1.648-2.748,2.09-4.121a12.752,12.752,0,0,0,.453-5.617c-.552-4.075-2.713-7.8-5.07-11.091-2.083-2.91-4.289-6.865-3.658-10.618.665-3.958,3.811-8.392,6.051-11.629,3.425-4.952,6.513-8.658,12.6-8.931,8.214-.37,19.632,1.192,24.027,9.3a40.254,40.254,0,0,1,2.406,6.589c.487,1.457,1.66,2.747,2.021,4.217.618,2.52-4.823,4.312-6.3,6a7.986,7.986,0,0,0-2.013,5.107,6.9,6.9,0,0,0,2.075,5.039c-.067-3.061.535-9.4,4.452-10.1a5.4,5.4,0,0,1,1.958.129c2.57.5,6.4.707,8.572,2.292,2,1.457,1.791,3.9,2.891,5.912a12.28,12.28,0,0,0,6.825,5.381c3.613,1.244,7.309,1.338,11.084,1.448.9.129.205,28.43.209,30.794,0,1.67,1.237,7.4.005,8.652-1.169,1.182-4.206-2.551-4.871-3.223-2.374-2.4-5.579-3.871-8.277-5.906A35.054,35.054,0,0,1,147.96,74.776a38.207,38.207,0,0,0-2.824-6.413c-1.265-1.968-3.283-3.639-5.621-3.744-3.155-.143-5.848,2.7-6.5,5.792s.273,6.293,1.489,9.208A45.594,45.594,0,0,0,149.678,98.7a43.907,43.907,0,0,0,10.968,5.868,26.486,26.486,0,0,0,9.3,1.749A2.534,2.534,0,0,1,172.3,107.4a3.046,3.046,0,0,1,.216,1.4c-.01,2.372.767,5,.113,7.358-.956,3.447-5.736,1.154-8.018,1.766a15.53,15.53,0,0,0-7.294,4.31c-2.323,2.479-3.774,5.661-6.027,8.2a17.028,17.028,0,0,1-9.91,5.464,8.885,8.885,0,0,1-5.136-.449c-1.883-.867-3.17-2.628-4.372-4.317-1.137-1.6-2.285-3.228-3.374-4.9" transform="translate(-68.325 -17.746)" fill="#fff" stroke="#031731" stroke-linecap="round" stroke-linejoin="round" stroke-width="2"/>
        <path id="Path_124" data-name="Path 124" d="M163.569,153.837a.923.923,0,0,1,.4-.11c1.916-.09,4.272,2.144,5.7,3.216a22.432,22.432,0,0,1,5.609,5.99,9.092,9.092,0,0,1-.731,10.646c-2.4,2.81-8,4.649-10.491.933-2.214-3.308-2.022-7.463-1.644-11.249C162.562,161.781,161.781,154.8,163.569,153.837Z" transform="translate(-94.423 -70.906)" fill="#fff" stroke="#031731" stroke-miterlimit="10" stroke-width="2"/>
        <path id="Path_125" data-name="Path 125" d="M192.613,95.137c0-.29.016-.58.038-.87a2.118,2.118,0,0,1,1.32-1.784,2.894,2.894,0,0,1,2.975.791,5.291,5.291,0,0,1,1.32,2.918c.289,1.8-.481,4.341-2.8,3.775C193.333,99.449,192.6,97.066,192.613,95.137Z" transform="translate(-106.32 -46.907)" fill="#fff" stroke="#031731" stroke-miterlimit="10" stroke-width="2"/>
        <path id="Path_126" data-name="Path 126" d="M200.631,113.071c0-.21.012-.42.028-.629a1.529,1.529,0,0,1,.954-1.289,2.09,2.09,0,0,1,2.15.571,3.827,3.827,0,0,1,.955,2.11c.209,1.3-.348,3.138-2.026,2.729C201.152,116.189,200.621,114.466,200.631,113.071Z" transform="translate(-109.455 -54.221)" fill="#fff" stroke="#031731" stroke-miterlimit="10" stroke-width="2"/>
        <path id="Path_127" data-name="Path 127" d="M202.438,129.769c-.031-.165-.056-.333-.076-.5a1.228,1.228,0,0,1,.551-1.165,1.678,1.678,0,0,1,1.782.115,3.068,3.068,0,0,1,1.081,1.512c.367.992.216,2.526-1.171,2.465C203.335,132.142,202.648,130.869,202.438,129.769Z" transform="translate(-110.128 -60.809)" fill="#fff" stroke="#031731" stroke-miterlimit="10" stroke-width="2"/>
        <path id="Path_128" data-name="Path 128" d="M179.226,39.309a1.335,1.335,0,0,1,.264-.1,8.3,8.3,0,0,1,2.57.248c.886.115,4.844.373,4.844,1.767,0,1.628-1.221,4.07,3.663,6.511s14.244,3.256,14.244,3.256V63.2a61.984,61.984,0,0,1-10.989-1.628c-4.07-1.221-5.7-2.849-6.1-4.07s.407-4.07-.407-6.512c-.572-1.715-2.556-2.819-4.024-3.665-2.057-1.184-4.033-2.754-4.745-5.119C178.227,41.159,178.325,39.765,179.226,39.309Z" transform="translate(-100.756 -26.117)" fill="#fff" stroke="#031731" stroke-miterlimit="10" stroke-width="2"/>
        <path id="Path_129" data-name="Path 129" d="M247.028,39.309a1.321,1.321,0,0,0-.264-.1,8.306,8.306,0,0,0-2.57.248c-.886.115-4.843.373-4.843,1.767,0,1.628,1.221,4.07-3.663,6.511s-14.245,3.256-14.245,3.256V63.2a61.976,61.976,0,0,0,10.989-1.628c4.07-1.221,5.7-2.849,6.1-4.07s-.407-4.07.407-6.512c.571-1.715,2.556-2.819,4.024-3.665,2.057-1.184,4.033-2.754,4.744-5.119C248.027,41.159,247.929,39.765,247.028,39.309Z" transform="translate(-116.749 -26.117)" fill="#fff" stroke="#031731" stroke-miterlimit="10" stroke-width="2"/>
        <path id="Path_130" data-name="Path 130" d="M234.86,175.431" transform="translate(-122.836 -79.392)" fill="none" stroke="#031731" stroke-linecap="round" stroke-linejoin="round" stroke-width="2"/>
      </g>
      <ellipse id="Ellipse_32" data-name="Ellipse 32" cx="19.535" cy="19.535" rx="19.535" ry="19.535" transform="translate(12.484 39.934)" fill="none" stroke="#e50019" stroke-miterlimit="10" stroke-width="2" stroke-dasharray="4 4"/>
    </g>
    <path id="Path_1741" data-name="Path 1741" d="M52.034,67.871,27.657,92.38l11.01,11.138-5.2,24.136,27.849-21.908L49.064,92.38Z" transform="translate(-27.657 -62.255)" fill="#e50019"/>
  </g>
</svg>
