<svg xmlns="http://www.w3.org/2000/svg" width="119.966" height="124.74" viewBox="0 0 119.966 124.74">
  <g id="ico3" transform="translate(1 1)">
    <path id="Path_81" data-name="Path 81" d="M195.761,98.288V90.454h7.83V84.52h-7.83V76.687h-5.938V84.52h-7.832v5.938h7.831v7.831Z" transform="translate(-136.056 -0.943)" fill="#e50019"/>
    <path id="Path_1745" data-name="Path 1745" d="M180.219,58.077s-3.489,2.243-5.981,1.247-2.742-1.5-3.739-5.733-6.231-6.731-6.855-8.226a5.979,5.979,0,0,1-.5-3.989l1.372.126s.623-3.49-.25-4.612-1.248-3.49-3.117-3.49-3.738.374-4.486,0-2.243-1.994-2.741-1.5-.872,2.492,0,3.115a4.227,4.227,0,0,1,1.247,1.37l-1.619-.308c0,.5.685,1.122.685,1.122s2.244.5,2.307.935c.145,1.017.249,1.744-.375,2.118s-1.619,1-1.869,3.739c0,0,0,.872-1.122.249a37.882,37.882,0,0,1-3.863-3.115c-.624-.5-.873.125-1.621-.374s-2.119-2.992-2.617-2.493-.748,2.493,0,3.116,1.247.5,2.12,1.122a38.534,38.534,0,0,1,5.856,5.109s-.374.5,1.123.373l1.5-.124s.748,5.11-.374,7.478a27.209,27.209,0,0,1-1.994,3.614s-2.244-.374-2.493.374-.625,1.869.25,1.869,2.619.375,2.867,0,4.612-5.733,4.736-6.356.871,1.5,2.368,3.365,1.245,1,.747,1.621-1.62.373-1.246,1a4.617,4.617,0,0,1,.5,1.121h8.723a2.586,2.586,0,0,0,.624-2.367,7.728,7.728,0,0,1,1.37.624c1.247.623,6.232,1.745,8.474-2.119Z" transform="translate(-136.056 -0.943)" fill="#e50019" fill-rule="evenodd"/>
    <g id="Group_16355" data-name="Group 16355">
      <path id="Rectangle_51" data-name="Rectangle 51" d="M3.472,0h15.8a9.213,9.213,0,0,1,9.213,9.213V21.5A14.244,14.244,0,0,1,14.244,35.747h0A14.244,14.244,0,0,1,0,21.5V3.472A3.472,3.472,0,0,1,3.472,0Z" transform="translate(72.046 15.592)" fill="none" stroke="#031731" stroke-miterlimit="10" stroke-width="2"/>
      <path id="Path_4987" data-name="Path 4987" d="M228.452,50.9h.91v11.65a6.575,6.575,0,0,1-6.57,6.57,6.1,6.1,0,0,1-1.66-.22" transform="translate(-136.056 -0.943)" fill="none" stroke="#031731" stroke-miterlimit="10" stroke-width="2"/>
      <path id="Path_4988" data-name="Path 4988" d="M216.222,58.473V50.9h.02" transform="translate(-136.056 -0.943)" fill="none" stroke="#031731" stroke-miterlimit="10" stroke-width="2"/>
      <path id="Path_4989" data-name="Path 4989" d="M218.848,44.4a5.1,5.1,0,0,0,7.208-.339" transform="translate(-136.056 -0.943)" fill="none" stroke="#031731" stroke-miterlimit="10" stroke-width="2"/>
      <path id="Rectangle_52" data-name="Rectangle 52" d="M5.315,0H10.63a0,0,0,0,1,0,0V10.63a0,0,0,0,1,0,0H5.315A5.315,5.315,0,0,1,0,5.315v0A5.315,5.315,0,0,1,5.315,0Z" transform="translate(61.416 25.23)" fill="none" stroke="#031731" stroke-miterlimit="10" stroke-width="2"/>
      <path id="Rectangle_53" data-name="Rectangle 53" d="M5.315,0H10.63a0,0,0,0,1,0,0V10.63a0,0,0,0,1,0,0H5.315A5.315,5.315,0,0,1,0,5.315v0A5.315,5.315,0,0,1,5.315,0Z" transform="translate(111.164 35.86) rotate(-180)" fill="none" stroke="#031731" stroke-miterlimit="10" stroke-width="2"/>
      <path id="Path_4990" data-name="Path 4990" d="M236.59,26.173h7.37v-6.16c0-10.53-8.56-16-19.09-16l-11.52-.09c-1.68-1.53-3.37-2.78-5.11-2.98a7.9,7.9,0,0,0-7.87,8.05v17.18h7.73" transform="translate(-136.056 -0.943)" fill="none" stroke="#031731" stroke-miterlimit="10" stroke-width="2"/>
      <path id="Path_4991" data-name="Path 4991" d="M241.9,87.493v36.19h-41.53v-10.11" transform="translate(-136.056 -0.943)" fill="none" stroke="#031731" stroke-miterlimit="10" stroke-width="2"/>
      <line id="Line_8" data-name="Line 8" y2="14.203" transform="translate(104.392 72.342)" fill="none" stroke="#031731" stroke-miterlimit="10" stroke-width="2"/>
      <line id="Line_9" data-name="Line 9" y2="11.553" transform="translate(89.191 85.797)" fill="none" stroke="#031731" stroke-miterlimit="10" stroke-width="2"/>
      <path id="Path_4992" data-name="Path 4992" d="M184.6,57.593h27.8a8.732,8.732,0,0,1,8.73,8.73v20.65h-7.22v6.7a4.622,4.622,0,0,0,4.62,4.62h2.6v6.54a8.734,8.734,0,0,1-8.73,8.74h-38.51a8.743,8.743,0,0,1-8.74-8.74V72.443" transform="translate(-136.056 -0.943)" fill="none" stroke="#031731" stroke-miterlimit="10" stroke-width="2"/>
      <path id="Path_4993" data-name="Path 4993" d="M229.362,61.943h9.73a14.788,14.788,0,0,1,14.93,14.64v13.8a7.986,7.986,0,0,1-8.06,7.91h-27.31a4.693,4.693,0,0,1-4.74-4.65v-6.15" transform="translate(-136.056 -0.943)" fill="none" stroke="#031731" stroke-miterlimit="10" stroke-width="2"/>
      <line id="Line_10" data-name="Line 10" x2="36.142" transform="translate(73.038 86.034)" fill="none" stroke="#031731" stroke-miterlimit="10" stroke-width="2"/>
      <circle id="Ellipse_53" data-name="Ellipse 53" cx="25.347" cy="25.347" r="25.347" transform="translate(0 21.083)" fill="none" stroke="#031731" stroke-miterlimit="10" stroke-width="2"/>
      <line id="Line_11" data-name="Line 11" x2="42.297" transform="translate(42.779 64.821)" fill="none" stroke="#031731" stroke-miterlimit="10" stroke-width="2"/>
    </g>
  </g>
</svg>
