<svg xmlns="http://www.w3.org/2000/svg" width="153.432" height="130.122" viewBox="0 0 153.432 130.122">
  <g id="ico4" transform="translate(1.004 1.024)">
    <g id="Group_16357" data-name="Group 16357" transform="translate(-140.041 50.593)">
      <path id="Path_4994" data-name="Path 4994" d="M234.638-11.973l35.479,35.479a8.52,8.52,0,0,1,0,12.05h0a8.522,8.522,0,0,1-12.05,0L231.744,9.233" fill="none" stroke="#031731" stroke-linecap="round" stroke-miterlimit="10" stroke-width="2"/>
      <path id="Path_4995" data-name="Path 4995" d="M231.749,9.228l26.323,26.323a8.522,8.522,0,0,1,0,12.05h0a8.522,8.522,0,0,1-12.05,0L219.7,21.278" fill="none" stroke="#031731" stroke-linecap="round" stroke-miterlimit="10" stroke-width="2"/>
      <path id="Path_4996" data-name="Path 4996" d="M219.7,21.278,246.022,47.6a8.52,8.52,0,0,1,0,12.05h0a8.52,8.52,0,0,1-12.049,0L216.182,41.86" fill="none" stroke="#031731" stroke-linecap="round" stroke-miterlimit="10" stroke-width="2"/>
      <path id="Path_4997" data-name="Path 4997" d="M216.182,41.86l17.791,17.791a8.52,8.52,0,0,1,0,12.049h0a8.52,8.52,0,0,1-12.05,0l-8.34-7.8" fill="none" stroke="#031731" stroke-linecap="round" stroke-miterlimit="10" stroke-width="2"/>
      <path id="Path_4998" data-name="Path 4998" d="M155.118,25.265l-1.8-1.8C136.436,6.583,135.531-19.891,151.3-35.66l1.272-1.272C168.341-52.7,194.815-51.8,211.7-34.91l1.039,1.039" fill="none" stroke="#031731" stroke-linecap="round" stroke-miterlimit="10" stroke-width="2"/>
    </g>
    <g id="Group_16359" data-name="Group 16359" transform="translate(-140.041 50.593)">
      <rect id="Rectangle_54" data-name="Rectangle 54" width="27.213" height="17.433" rx="8.717" transform="translate(187.369 64.764) rotate(-45)" fill="none" stroke="#e50019" stroke-linecap="round" stroke-miterlimit="10" stroke-width="2"/>
      <rect id="Rectangle_55" data-name="Rectangle 55" width="27.213" height="17.433" rx="8.717" transform="translate(175.159 52.553) rotate(-45)" fill="none" stroke="#e50019" stroke-linecap="round" stroke-miterlimit="10" stroke-width="2"/>
      <rect id="Rectangle_56" data-name="Rectangle 56" width="27.213" height="17.433" rx="8.717" transform="translate(162.948 40.342) rotate(-45)" fill="none" stroke="#e50019" stroke-linecap="round" stroke-miterlimit="10" stroke-width="2"/>
      <rect id="Rectangle_57" data-name="Rectangle 57" width="27.213" height="17.433" rx="8.717" transform="translate(150.737 28.131) rotate(-45)" fill="none" stroke="#e50019" stroke-linecap="round" stroke-miterlimit="10" stroke-width="2"/>
      <path id="Path_4999" data-name="Path 4999" d="M284.455-30.027a43.169,43.169,0,0,1-5.749,54.165l-5.78,5.78" fill="none" stroke="#e50019" stroke-linecap="round" stroke-miterlimit="10" stroke-width="2"/>
      <path id="Path_5000" data-name="Path 5000" d="M214.926-36.058l1.792-1.792a43.188,43.188,0,0,1,52.926-6.534" fill="none" stroke="#e50019" stroke-linecap="round" stroke-miterlimit="10" stroke-width="2"/>
      <path id="Path_5001" data-name="Path 5001" d="M217.884-39.016,196.925-18.057a10.936,10.936,0,0,0,0,15.468h0a10.937,10.937,0,0,0,15.467,0l7.3-7.3a4.032,4.032,0,0,1,2.733-1.179l8.166-.241a11.533,11.533,0,0,0,7.813-3.373l9.825-9.825" fill="none" stroke="#e50019" stroke-linecap="round" stroke-miterlimit="10" stroke-width="2"/>
    </g>
  </g>
</svg>
