<svg xmlns="http://www.w3.org/2000/svg" width="103.445" height="162.056" viewBox="0 0 103.445 162.056">
  <g id="ico5" transform="translate(1.077 1.39)">
    <g id="Group_169" data-name="Group 169" transform="translate(0 -0.149)">
      <g id="Group_168" data-name="Group 168" transform="translate(0 0)">
        <path id="Path_131" data-name="Path 131" d="M-88.912,4.636h-46.246A4.245,4.245,0,0,1-139.406.389l4.562-100.964a11.118,11.118,0,0,1,11.117-11.117h23.384a11.12,11.12,0,0,1,11.117,11.117L-84.663.389A4.247,4.247,0,0,1-88.912,4.636Z" transform="translate(139.406 155.18)" fill="#fff" stroke="#031731" stroke-miterlimit="10" stroke-width="2"/>
        <path id="Rectangle_28" data-name="Rectangle 28" d="M3.567,0H24.433A3.567,3.567,0,0,1,28,3.567V16a0,0,0,0,1,0,0H0a0,0,0,0,1,0,0V3.567A3.567,3.567,0,0,1,3.567,0Z" transform="translate(13.625 27.189)" fill="none" stroke="#031731" stroke-miterlimit="10" stroke-width="2"/>
        <path id="Rectangle_29" data-name="Rectangle 29" d="M2,0H7A2,2,0,0,1,9,2V27a0,0,0,0,1,0,0H0a0,0,0,0,1,0,0V2A2,2,0,0,1,2,0Z" transform="translate(22.625 0.189)" fill="#fff" stroke="#031731" stroke-miterlimit="10" stroke-width="2"/>
        <rect id="Rectangle_30" data-name="Rectangle 30" width="32" height="58" rx="2.031" transform="translate(11.625 75.189)" fill="none" stroke="#031731" stroke-miterlimit="10" stroke-width="2"/>
        <path id="Path_81" data-name="Path 81" d="M-117.167-65.883v-8.88h8.875V-81.49h-8.875v-8.877H-123.9v8.877h-8.877v6.731h8.877v8.875Z" transform="translate(147.903 182.497)" fill="#e50019"/>
      </g>
      <path id="Path_132" data-name="Path 132" d="M-123.659-117.9a7.131,7.131,0,0,0-.992-3.982,44.935,44.935,0,0,0-7.089-8.815c-2.981,2.976-5.39,7.326-7,10.506a7.151,7.151,0,0,0,.994,7.515,7.905,7.905,0,0,0,6.316,3.186,7.7,7.7,0,0,0,6.984-4.482A8.676,8.676,0,0,0-123.659-117.9Z" transform="translate(139.406 130.842)" fill="#fff" stroke="#031731" stroke-width="2"/>
    </g>
    <g id="Group_107" data-name="Group 107" transform="translate(41.756 27.15)">
      <g id="Path_78" data-name="Path 78" transform="translate(115.536 114.565)" fill="#fff" stroke-linejoin="round">
        <path d="M -87.06365966796875 -50.52062225341797 C -89.42796325683594 -50.52062225341797 -91.13890838623047 -51.80290985107422 -92.14897918701172 -54.33188247680664 C -93.3770751953125 -57.40594100952148 -92.83106231689453 -59.7841911315918 -92.19882965087891 -62.53797149658203 C -91.42851257324219 -65.89323425292969 -90.555419921875 -69.69615936279297 -92.91368865966797 -75.25913238525391 C -93.78475189208984 -77.31297302246094 -94.17206573486328 -79.25645446777344 -94.06494140625 -81.03572082519531 C -93.98084259033203 -82.43270874023438 -93.59181213378906 -83.73995208740234 -92.90868377685547 -84.92113494873047 C -91.72380065917969 -86.9698486328125 -90.03630065917969 -87.96028900146484 -90.01939392089844 -87.97006225585938 L -89.94818115234375 -88.01047515869141 L -89.89374542236328 -88.05525970458984 C -89.87604522705078 -88.069091796875 -87.79410552978516 -89.67149353027344 -84.79402923583984 -89.67149353027344 C -82.11537933349609 -89.67149353027344 -79.51152038574219 -88.42459869384766 -77.05477905273438 -85.96546173095703 C -72.78282165527344 -81.69033050537109 -68.93746948242188 -81.06766510009766 -65.54479217529297 -80.51828002929688 C -62.76127243041992 -80.06754302978516 -60.35733032226563 -79.67826843261719 -57.96966171264648 -77.38677215576172 C -56.28382110595703 -75.77728271484375 -55.63597106933594 -74.02638244628906 -56.04221343994141 -72.18088531494141 C -56.39589309692383 -70.57418060302734 -57.44000244140625 -69.27362060546875 -58.25361251831055 -68.46551513671875 C -59.25218200683594 -67.47370910644531 -60.47098159790039 -66.66909027099609 -61.51391220092773 -66.31316375732422 L -61.54071044921875 -66.30402374267578 L -61.56695175170898 -66.29337310791016 C -68.74356079101563 -63.38104248046875 -75.11455535888672 -59.08370208740234 -80.50295257568359 -53.52073287963867 L -80.52339172363281 -53.4996223449707 L -80.54256439208984 -53.47735214233398 C -81.16893005371094 -52.74965286254883 -82.16888427734375 -52.01961135864258 -83.2860107421875 -51.47441101074219 C -84.17758178710938 -51.03930282592773 -85.55669403076172 -50.52062225341797 -87.06365966796875 -50.52062225341797 Z M -102.969482421875 -61.97434234619141 C -105.1116790771484 -61.97434234619141 -107.3668518066406 -62.69407272338867 -109.3195648193359 -64.00093078613281 C -113.7999420166016 -67.00056457519531 -115.5647048950195 -72.25112152099609 -113.2533645629883 -75.70522308349609 C -112.0426254272461 -77.51585388183594 -109.8635787963867 -78.55413818359375 -107.2748107910156 -78.55413818359375 C -105.1334457397461 -78.55413818359375 -102.8794097900391 -77.83512878417969 -100.9279251098633 -76.52954864501953 C -98.72145080566406 -75.05313110351563 -97.10591125488281 -72.99616241455078 -96.37897491455078 -70.73760986328125 C -95.67832183837891 -68.56076812744141 -95.896728515625 -66.45995330810547 -96.99396514892578 -64.8221435546875 L -96.99318695068359 -64.82150268554688 C -98.20349884033203 -63.01213073730469 -100.3815612792969 -61.97434234619141 -102.969482421875 -61.97434234619141 Z M -103.3771286010742 -83.43172454833984 C -105.787483215332 -83.43172454833984 -108.3660507202148 -84.42987823486328 -110.4516754150391 -86.17024993896484 C -112.4895324707031 -87.87091064453125 -113.8769226074219 -90.08826446533203 -114.3582458496094 -92.41381072998047 C -114.8216094970703 -94.65261077880859 -114.3814926147461 -96.71835327148438 -113.1189498901367 -98.23048400878906 C -111.9065933227539 -99.68238067626953 -110.0379638671875 -100.4819946289063 -107.8573303222656 -100.4819946289063 C -105.4452438354492 -100.4819946289063 -102.8641510009766 -99.48344421386719 -100.7758712768555 -97.74236297607422 C -98.43704223632813 -95.79067993164063 -96.96009063720703 -93.15676116943359 -96.72405242919922 -90.51625823974609 C -96.55635833740234 -88.64031982421875 -97.03620147705078 -86.96981048583984 -98.11170196533203 -85.68533325195313 L -98.11044311523438 -85.68392181396484 C -99.32659149169922 -84.23146057128906 -101.1967010498047 -83.43172454833984 -103.3771286010742 -83.43172454833984 Z M -67.07667541503906 -85.68798065185547 C -67.07677459716797 -85.68798065185547 -67.07686614990234 -85.68798065185547 -67.07696533203125 -85.68798065185547 C -68.82891845703125 -85.68804931640625 -70.61135101318359 -86.48019409179688 -72.09592437744141 -87.91847229003906 C -73.64435577392578 -89.41863250732422 -74.76425933837891 -91.52393341064453 -75.24935913085938 -93.84657287597656 C -76.35359954833984 -99.12572479248047 -73.94071197509766 -104.1133346557617 -69.87068176269531 -104.9650802612305 L -69.69961547851563 -105.0008850097656 C -69.35859680175781 -105.0619659423828 -69.01148986816406 -105.0928726196289 -68.66541290283203 -105.0928726196289 C -66.91156005859375 -105.0928726196289 -65.12715911865234 -104.3000640869141 -63.64091110229492 -102.8604888916016 C -62.09122085571289 -101.3594589233398 -60.97214126586914 -99.25492858886719 -60.48982238769531 -96.93455505371094 C -59.39226150512695 -91.65435791015625 -61.80682373046875 -86.66534423828125 -65.87228393554688 -85.81319427490234 C -66.26801300048828 -85.73007965087891 -66.67311096191406 -85.68798065185547 -67.07667541503906 -85.68798065185547 Z M -86.62102508544922 -94.37823486328125 C -88.28098297119141 -94.37823486328125 -90.01700592041016 -95.07143402099609 -91.50929260253906 -96.33012390136719 C -93.09084320068359 -97.66410827636719 -94.2938232421875 -99.50398254394531 -94.98817443847656 -101.6508178710938 C -95.80532836914063 -104.1799392700195 -95.79826354980469 -106.7979049682617 -94.96817016601563 -109.0221633911133 C -94.16868591308594 -111.1644439697266 -92.69598388671875 -112.677001953125 -90.82136535644531 -113.2812194824219 C -90.23605346679688 -113.4698028564453 -89.62460327148438 -113.5654296875 -89.00408935546875 -113.5654296875 C -87.34516143798828 -113.5654296875 -85.61011505126953 -112.8720703125 -84.11856842041016 -111.6130752563477 C -82.53809356689453 -110.2790145874023 -81.33414459228516 -108.4380950927734 -80.63687133789063 -106.2893447875977 C -79.69583129882813 -103.3864288330078 -79.84834289550781 -100.3675842285156 -81.05538177490234 -98.00713348388672 C -81.91091156005859 -96.33409881591797 -83.20399475097656 -95.17795562744141 -84.79534149169922 -94.66330718994141 L -84.79613494873047 -94.66493225097656 C -85.38362121582031 -94.47469329833984 -85.99760437011719 -94.37823486328125 -86.62102508544922 -94.37823486328125 Z" stroke="none"/>
        <path d="M -87.06365966796875 -51.52061462402344 C -86.03684997558594 -51.52061462402344 -84.85101318359375 -51.82337188720703 -83.72460174560547 -52.37309265136719 C -82.73973846435547 -52.85373687744141 -81.83352661132813 -53.51042556762695 -81.30046844482422 -54.12971496582031 C -81.27491760253906 -54.15940475463867 -81.24848937988281 -54.18833541870117 -81.22123718261719 -54.21646881103516 C -75.73545074462891 -59.8800048828125 -69.24930572509766 -64.25501251220703 -61.9429817199707 -67.21997833251953 C -61.90800476074219 -67.23416900634766 -61.87262725830078 -67.24736785888672 -61.8369026184082 -67.25956726074219 C -61.13718032836914 -67.49836730957031 -60.01352691650391 -68.12696075439453 -58.95832443237305 -69.17501831054688 C -57.94280242919922 -70.18367004394531 -57.25401306152344 -71.3275146484375 -57.01883697509766 -72.3958740234375 C -56.68828201293945 -73.89750671386719 -57.22455978393555 -75.2928466796875 -58.6583137512207 -76.66165924072266 C -58.65956878662109 -76.66287231445313 -58.66082382202148 -76.66407012939453 -58.66209030151367 -76.665283203125 C -60.82487106323242 -78.74095153808594 -62.97830200195313 -79.08966064453125 -65.70465087890625 -79.53113555908203 C -69.07152557373047 -80.07633972167969 -73.26172637939453 -80.75485992431641 -77.76223754882813 -85.25870513916016 C -80.02458953857422 -87.52326202392578 -82.39042663574219 -88.67149353027344 -84.79403686523438 -88.67149353027344 C -87.34758758544922 -88.67149353027344 -89.16074371337891 -87.35449981689453 -89.27777862548828 -87.26729583740234 C -89.36325073242188 -87.19766235351563 -89.43198394775391 -87.15358734130859 -89.52918243408203 -87.09844970703125 C -89.54318237304688 -87.09050750732422 -90.97479248046875 -86.22637176513672 -92.00347137451172 -84.48810577392578 C -93.44837951660156 -82.04647827148438 -93.44490051269531 -79.07282257080078 -91.99300384521484 -75.64943695068359 C -89.50827789306641 -69.78816986083984 -90.45970153808594 -65.64405822753906 -91.22418975830078 -62.31420516967773 C -91.84341430664063 -59.61709213256836 -92.33250427246094 -57.48673629760742 -91.22031402587891 -54.70279312133789 C -90.36508941650391 -52.56151580810547 -89.00543975830078 -51.52061462402344 -87.06365966796875 -51.52061462402344 M -102.969482421875 -62.97433853149414 C -100.7428131103516 -62.97433853149414 -98.88240814208984 -63.83316802978516 -97.85442352294922 -65.33311462402344 C -97.84477233886719 -65.348388671875 -97.83486175537109 -65.36361694335938 -97.82474517822266 -65.37871551513672 C -96.90126800537109 -66.75719451904297 -96.72586822509766 -68.55153656005859 -97.33087921142578 -70.43122863769531 C -97.98906707763672 -72.4761962890625 -99.46405792236328 -74.34681701660156 -101.4839706420898 -75.69840240478516 C -103.2727127075195 -76.89510345458984 -105.3292694091797 -77.55414581298828 -107.2748031616211 -77.55414581298828 C -109.524040222168 -77.55414581298828 -111.4000778198242 -76.677734375 -112.4222717285156 -75.14907836914063 C -113.3441009521484 -73.771484375 -113.5189361572266 -71.97808074951172 -112.9145812988281 -70.09923553466797 C -112.2568511962891 -68.05447387695313 -110.7824935913086 -66.18379211425781 -108.7633666992188 -64.83199310302734 C -106.9734573364258 -63.63405990600586 -104.9158172607422 -62.97433853149414 -102.969482421875 -62.97433853149414 M -103.3771286010742 -84.43172454833984 C -101.526481628418 -84.43172454833984 -99.94864654541016 -85.08411407470703 -98.9241943359375 -86.27059936523438 C -98.90932464599609 -86.28971862792969 -98.89408874511719 -86.30859375 -98.87842559814453 -86.32730102539063 C -97.73970031738281 -87.68729400634766 -97.6199951171875 -89.30751800537109 -97.72007751464844 -90.42722320556641 C -97.93265533447266 -92.80522918701172 -99.28010559082031 -95.19173431396484 -101.4162368774414 -96.97428894042969 C -103.3277282714844 -98.56797027587891 -105.6754150390625 -99.48199462890625 -107.8573226928711 -99.48199462890625 C -109.7363128662109 -99.48199462890625 -111.3323364257813 -98.80989074707031 -112.3513336181641 -97.58956909179688 C -113.4142913818359 -96.31648254394531 -113.7792510986328 -94.55033874511719 -113.3790054321289 -92.61649322509766 C -112.9432678222656 -90.51122283935547 -111.6761016845703 -88.49456024169922 -109.8109664916992 -86.93805694580078 C -107.9022064208984 -85.34524536132813 -105.5571594238281 -84.43172454833984 -103.3771286010742 -84.43172454833984 M -67.07666778564453 -86.68798065185547 C -66.74205017089844 -86.68798065185547 -66.40610504150391 -86.722900390625 -66.07742309570313 -86.79192352294922 C -64.45589447021484 -87.13180541992188 -63.0762939453125 -88.29196166992188 -62.1927604675293 -90.05866241455078 C -61.23123550415039 -91.98130035400391 -60.97415924072266 -94.35093688964844 -61.46889114379883 -96.73104095458984 C -62.34128189086914 -100.9279708862305 -65.43510437011719 -104.0928726196289 -68.66541290283203 -104.0928726196289 C -68.97268676757813 -104.0928726196289 -69.28097534179688 -104.0634918212891 -69.58298492431641 -104.005485534668 C -69.61044311523438 -103.9985046386719 -69.63806915283203 -103.9921035766602 -69.66585540771484 -103.9862899780273 C -71.2911376953125 -103.6461563110352 -72.67207336425781 -102.4873580932617 -73.55424499511719 -100.7233581542969 C -74.51449584960938 -98.80326080322266 -74.76890563964844 -96.43384552001953 -74.27047729492188 -94.05100250244141 C -73.82583618164063 -91.92202758789063 -72.80644989013672 -89.99918365478516 -71.40010070800781 -88.63668060302734 C -70.10308074951172 -87.38010406494141 -68.5677490234375 -86.68803405761719 -67.07681274414063 -86.68798065185547 C -67.07680511474609 -86.68798065185547 -67.07668304443359 -86.68798065185547 -67.07666778564453 -86.68798065185547 M -86.62101745605469 -95.37823486328125 C -86.10235595703125 -95.37823486328125 -85.59202575683594 -95.45833587646484 -85.10419464111328 -95.61630249023438 C -85.08100128173828 -95.62380981445313 -85.05781555175781 -95.630859375 -85.0345458984375 -95.63748168945313 C -83.39237213134766 -96.19512939453125 -82.44940948486328 -97.47743988037109 -81.94572448730469 -98.46242523193359 C -80.85867309570313 -100.588249206543 -80.72835540771484 -103.3287506103516 -81.58805084228516 -105.9806823730469 C -82.21855926513672 -107.9237060546875 -83.3463134765625 -109.6526031494141 -84.76359558105469 -110.8489151000977 C -86.07495880126953 -111.9558258056641 -87.58094024658203 -112.5654373168945 -89.00408935546875 -112.5654373168945 C -89.52033996582031 -112.5654373168945 -90.02860260009766 -112.4860153198242 -90.51457977294922 -112.3294372558594 C -92.09203338623047 -111.8210067749023 -93.34095764160156 -110.5222778320313 -94.03128051757813 -108.6725234985352 C -94.78292846679688 -106.6584777832031 -94.78478240966797 -104.2738800048828 -94.03670501708984 -101.9585494995117 C -93.40904998779297 -100.0179138183594 -92.28249359130859 -98.29050445556641 -90.86454772949219 -97.09452819824219 C -89.55238342285156 -95.98776245117188 -88.04533386230469 -95.37823486328125 -86.62101745605469 -95.37823486328125 M -87.06365966796875 -49.52061462402344 C -89.44343566894531 -49.52061462402344 -91.76168823242188 -50.66612243652344 -93.07764434814453 -53.96097183227539 C -96.00194549560547 -61.28082656860352 -89.70448303222656 -65.12673950195313 -93.83438110351563 -74.86883544921875 C -97.96610260009766 -84.61092376708984 -90.51615905761719 -88.83795166015625 -90.51615905761719 -88.83795166015625 C -90.51615905761719 -88.83795166015625 -88.21051025390625 -90.67149353027344 -84.79403686523438 -90.67149353027344 C -82.39003753662109 -90.67149353027344 -79.43646240234375 -89.76437377929688 -76.34733581542969 -86.67222595214844 C -68.86625671386719 -79.18561553955078 -62.96272659301758 -83.56472778320313 -57.27723693847656 -78.10826110839844 C -51.57342529296875 -72.66279602050781 -57.57772445678711 -66.59986877441406 -61.19092559814453 -65.36676025390625 C -68.19380187988281 -62.52493667602539 -74.52607727050781 -58.25393676757813 -79.78466033935547 -52.82498168945313 C -81.1551513671875 -51.23278427124023 -84.15518951416016 -49.52061462402344 -87.06365966796875 -49.52061462402344 Z M -102.969482421875 -60.97433853149414 C -105.2311553955078 -60.97433853149414 -107.6730651855469 -61.69570922851563 -109.8757553100586 -63.16987991333008 C -114.8210220336914 -66.48075866699219 -116.7082443237305 -72.34031677246094 -114.0844573974609 -76.26134490966797 C -112.6300964355469 -78.43630218505859 -110.0913772583008 -79.55414581298828 -107.2748031616211 -79.55414581298828 C -105.0136108398438 -79.55414581298828 -102.5732345581055 -78.83345031738281 -100.3718719482422 -77.36070251464844 C -95.42658996582031 -74.05165100097656 -93.53388977050781 -68.19024658203125 -96.16316223144531 -64.26555633544922 L -96.15950012207031 -64.26923370361328 C -97.61301422119141 -62.09304046630859 -100.151611328125 -60.97433853149414 -102.969482421875 -60.97433853149414 Z M -103.3771209716797 -82.43172454833984 C -105.9375076293945 -82.43172454833984 -108.7268295288086 -83.42850494384766 -111.0923690795898 -85.40247344970703 C -115.6656951904297 -89.21906280517578 -116.9079666137695 -95.25267791748047 -113.8865661621094 -98.87139129638672 C -112.4286499023438 -100.6173477172852 -110.2431488037109 -101.4819869995117 -107.8573226928711 -101.4819869995117 C -105.2957611083984 -101.4819869995117 -102.5033798217773 -100.4846115112305 -100.1355056762695 -98.51042938232422 C -95.56403350830078 -94.69565582275391 -94.31809234619141 -88.65840148925781 -97.34497833251953 -85.04335021972656 L -97.3394775390625 -85.04701232910156 C -98.80096435546875 -83.29817199707031 -100.9894790649414 -82.43172454833984 -103.3771209716797 -82.43172454833984 Z M -67.07699584960938 -84.68798065185547 C -71.20899200439453 -84.68814849853516 -75.1339111328125 -88.40250396728516 -76.22823333740234 -93.64211273193359 C -77.44852447509766 -99.47602844238281 -74.69830322265625 -104.9764556884766 -70.07552337646484 -105.9438781738281 L -70.07003784179688 -105.9475631713867 C -69.60166168212891 -106.0455093383789 -69.13233947753906 -106.0928726196289 -68.66541290283203 -106.0928726196289 C -64.52940368652344 -106.0928726196289 -60.59901428222656 -102.3735885620117 -59.51074600219727 -97.1380615234375 C -58.29962539672852 -91.31149291992188 -61.05168151855469 -85.80189514160156 -65.66712188720703 -84.83445739746094 C -66.13729095458984 -84.73572540283203 -66.60833740234375 -84.68795776367188 -67.07699584960938 -84.68798065185547 Z M -86.62101745605469 -93.37823486328125 C -90.49897003173828 -93.37823486328125 -94.39156341552734 -96.55658721923828 -95.93965148925781 -101.3430938720703 C -97.77188873291016 -107.0139236450195 -95.61899566650391 -112.7855377197266 -91.12812805175781 -114.2330017089844 C -90.42998504638672 -114.4579391479492 -89.71746826171875 -114.5654373168945 -89.00409698486328 -114.5654373168945 C -85.12677764892578 -114.5654373168945 -81.23941802978516 -111.3860549926758 -79.68569946289063 -106.5979919433594 C -77.84796142578125 -100.9289779663086 -80.0045166015625 -95.15737915039063 -84.49354553222656 -93.70990753173828 L -84.48805999755859 -93.71356964111328 C -85.18866729736328 -93.48670196533203 -85.904541015625 -93.37823486328125 -86.62101745605469 -93.37823486328125 Z" stroke="none" fill="#e50019"/>
      </g>
    </g>
  </g>
</svg>
