<svg xmlns="http://www.w3.org/2000/svg" width="153.96" height="165.618" viewBox="0 0 153.96 165.618">
  <g id="ico6" transform="translate(1 1)">
    <path id="Path_5002" data-name="Path 5002" d="M457.6,54.45h0a14.19,14.19,0,0,1-14.2-14.2V22.15a3.543,3.543,0,0,1,3.5-3.5h15.8a9.176,9.176,0,0,1,9.2,9.2v12.3A14.3,14.3,0,0,1,457.6,54.45Z" transform="translate(-378.35 67.765)" fill="none" stroke="#031731" stroke-miterlimit="10" stroke-width="2"/>
    <path id="Path_5003" data-name="Path 5003" d="M454.1,46.55a5.165,5.165,0,0,0,7.2-.3" transform="translate(-378.35 67.765)" fill="none" stroke="#031731" stroke-miterlimit="10" stroke-width="2"/>
    <path id="Path_5004" data-name="Path 5004" d="M443.4,38.95h-4.558c-2.494,0-4.558-2.4-4.558-5.3h0c0-2.9,2.064-5.3,4.558-5.3H443.4Z" transform="translate(-378.35 67.765)" fill="none" stroke="#031731" stroke-miterlimit="10" stroke-width="2"/>
    <path id="Path_5005" data-name="Path 5005" d="M471.9,38.95h4.625c2.531,0,4.625-2.4,4.625-5.3h0c0-2.9-2.094-5.3-4.625-5.3H471.9Z" transform="translate(-378.35 67.765)" fill="none" stroke="#031731" stroke-miterlimit="10" stroke-width="2"/>
    <path id="Path_5006" data-name="Path 5006" d="M435.7,29.843V11.693c0-4.8,3.5-8.64,7.9-8.64,1.7.21,3.4,1.6,5.1,3.2l11.5.1c10.5,0,19.1,5.87,19.1,17.07v6.01" transform="translate(-378.35 67.765)" fill="none" stroke="#031731" stroke-miterlimit="10" stroke-width="2"/>
    <g id="Group_16360" data-name="Group 16360" transform="translate(-378.35 67.765)">
      <path id="Path_5007" data-name="Path 5007" d="M463.8,53.05h.9v11.6a6.594,6.594,0,0,1-6.6,6.6,9.853,9.853,0,0,1-1.7-.2" fill="none" stroke="#031731" stroke-miterlimit="10" stroke-width="2"/>
      <path id="Path_5008" data-name="Path 5008" d="M451.5,60.65v-7.6h0" fill="none" stroke="#031731" stroke-miterlimit="10" stroke-width="2"/>
      <path id="Path_5009" data-name="Path 5009" d="M475.1,83.65v12.2h-35.15V83.65" fill="none" stroke="#031731" stroke-miterlimit="10" stroke-width="2"/>
      <path id="Path_5010" data-name="Path 5010" d="M463.779,53.053h.92v11.6a6.6,6.6,0,0,1-13.2,0V53.083" fill="none" stroke="#031731" stroke-miterlimit="10" stroke-width="2"/>
      <path id="Path_5011" data-name="Path 5011" d="M465.21,59.563h2a18.315,18.315,0,0,1,18.047,18.57v13.75a3.919,3.919,0,0,1-3.858,3.97h-47.8a3.919,3.919,0,0,1-3.858-3.97V78.133A18.321,18.321,0,0,1,447.8,59.563h3.7" fill="none" stroke="#031731" stroke-miterlimit="10" stroke-width="2"/>
      <path id="Path_5012" data-name="Path 5012" d="M453.591,69.47l3.464,17.239L445.889,71.253l1.64-2.82-5.444-7.783" fill="none" stroke="#031731" stroke-linecap="round" stroke-linejoin="round" stroke-width="2"/>
      <path id="Path_5013" data-name="Path 5013" d="M462.358,69.691l-5.3,17.018,11.554-15.456-1.64-2.82,5.444-7.783" fill="none" stroke="#031731" stroke-linecap="round" stroke-linejoin="round" stroke-width="2"/>
    </g>
    <g id="Group_16362" data-name="Group 16362" transform="translate(-378.35 67.765)">
      <path id="Path_5014" data-name="Path 5014" d="M390.721,30.586h-4.558c-2.493,0-4.557-2.4-4.557-5.3h0c0-2.9,2.063-5.3,4.557-5.3h4.558Z" fill="none" stroke="#031731" stroke-miterlimit="10" stroke-width="2"/>
      <path id="Path_5015" data-name="Path 5015" d="M421.393,30.651h4.626c2.53,0,4.625-2.4,4.625-5.3h0c0-2.9-2.1-5.3-4.625-5.3h-4.626Z" fill="none" stroke="#031731" stroke-miterlimit="10" stroke-width="2"/>
      <g id="Group_16361" data-name="Group 16361">
        <path id="Path_5016" data-name="Path 5016" d="M412.4,43.417h.9v11.6a6.594,6.594,0,0,1-6.6,6.6,9.852,9.852,0,0,1-1.7-.2" fill="none" stroke="#031731" stroke-miterlimit="10" stroke-width="2"/>
        <path id="Path_5017" data-name="Path 5017" d="M400.1,51.017v-7.6h0" fill="none" stroke="#031731" stroke-miterlimit="10" stroke-width="2"/>
        <path id="Path_5018" data-name="Path 5018" d="M423.7,74.017v12.2h-35.15v-12.2" fill="none" stroke="#031731" stroke-miterlimit="10" stroke-width="2"/>
        <path id="Path_5019" data-name="Path 5019" d="M412.382,43.42h.92v11.6a6.6,6.6,0,0,1-13.2,0V43.45" fill="none" stroke="#031731" stroke-miterlimit="10" stroke-width="2"/>
        <path id="Path_5020" data-name="Path 5020" d="M400.1,49.933h-3.7A18.325,18.325,0,0,0,378.35,68.5v13.75a3.919,3.919,0,0,0,3.86,3.97h47.54" fill="none" stroke="#031731" stroke-miterlimit="10" stroke-width="2"/>
        <path id="Path_5021" data-name="Path 5021" d="M413.81,49.933h2a18.239,18.239,0,0,1,17.94,16.54" fill="none" stroke="#031731" stroke-miterlimit="10" stroke-width="2"/>
        <path id="Path_5022" data-name="Path 5022" d="M402.193,59.837l3.464,17.239L394.492,61.62l1.64-2.82-5.444-7.783" fill="none" stroke="#031731" stroke-linecap="round" stroke-linejoin="round" stroke-width="2"/>
        <path id="Path_5023" data-name="Path 5023" d="M410.961,60.058l-5.3,17.018L417.212,61.62l-1.64-2.82,5.444-7.783" fill="none" stroke="#031731" stroke-linecap="round" stroke-linejoin="round" stroke-width="2"/>
      </g>
      <path id="Path_5024" data-name="Path 5024" d="M385.686,19.55v-.841a20.42,20.42,0,1,1,40.84,0v1.34" fill="none" stroke="#031731" stroke-linecap="round" stroke-linejoin="round" stroke-width="2"/>
      <path id="Path_5025" data-name="Path 5025" d="M406.132,44.841c-.122,0-.245,0-.367,0a15.723,15.723,0,0,1-12.384-7.024c-3.387-5.057-2.512-11.415-2.644-17.219a12.651,12.651,0,0,1,.4-4.338A4.293,4.293,0,0,1,394.1,13.3c2.833-.586,4.909,1.722,7.408,2.639,4.184,1.536,6.078-2.138,9.3-3.965a7.191,7.191,0,0,1,9.246,2.272c1.7,2.63,1.433,6.005,1.4,9.134-.035,3.27.243,6.592-.519,9.772A15.741,15.741,0,0,1,406.132,44.841Z" fill="none" stroke="#031731" stroke-linecap="round" stroke-linejoin="round" stroke-width="2"/>
    </g>
    <rect id="Rectangle_58" data-name="Rectangle 58" width="8.092" height="4.385" transform="translate(14.337 143.498)" fill="none" stroke="#e50019" stroke-miterlimit="10" stroke-width="2"/>
    <rect id="Rectangle_59" data-name="Rectangle 59" width="8.092" height="4.385" transform="translate(65.735 152.282)" fill="none" stroke="#e50019" stroke-miterlimit="10" stroke-width="2"/>
    <g id="Group_16363" data-name="Group 16363" transform="translate(-378.35 67.765)">
      <path id="Path_5026" data-name="Path 5026" d="M490.112,17.893C494,15.351,500.5,15.469,508.9,16.024a7.454,7.454,0,0,0,7.454-7.454h0A7.454,7.454,0,0,0,508.9,1.115H498.192c-5.16,0-10.016,3.794-10.016,8.954C487.755,12.644,488.806,15.517,490.112,17.893Z" fill="none" stroke="#e50019" stroke-miterlimit="10" stroke-width="2"/>
      <path id="Path_5027" data-name="Path 5027" d="M519.383,19.891a13.627,13.627,0,0,0,.6-9.155,8.46,8.46,0,0,0-4.022-4.571" fill="none" stroke="#e50019" stroke-miterlimit="10" stroke-width="2"/>
      <path id="Path_5028" data-name="Path 5028" d="M490.274,17.792V32.8a14.809,14.809,0,0,0,29.618,0V22.7a7.981,7.981,0,0,0-6.892-7.9" fill="none" stroke="#e50019" stroke-miterlimit="10" stroke-width="2"/>
      <path id="Rectangle_60" data-name="Rectangle 60" d="M3.375,0h.966a0,0,0,0,1,0,0V7.179a0,0,0,0,1,0,0H3.375A3.375,3.375,0,0,1,0,3.8v-.43A3.375,3.375,0,0,1,3.375,0Z" transform="translate(524.233 28.461) rotate(180)" fill="none" stroke="#e50019" stroke-miterlimit="10" stroke-width="2"/>
      <path id="Rectangle_61" data-name="Rectangle 61" d="M3.375,0h.966a0,0,0,0,1,0,0V7.179a0,0,0,0,1,0,0H3.375A3.375,3.375,0,0,1,0,3.8v-.43A3.375,3.375,0,0,1,3.375,0Z" transform="translate(485.911 21.281)" fill="none" stroke="#e50019" stroke-miterlimit="10" stroke-width="2"/>
      <path id="Path_5029" data-name="Path 5029" d="M486.712,27.436a59.3,59.3,0,0,0-3.885,6.827,29.942,29.942,0,0,0-1.241,3.821" fill="none" stroke="#e50019" stroke-miterlimit="10" stroke-width="2"/>
      <path id="Path_5030" data-name="Path 5030" d="M523.346,27.436s4.193,8.2,4.6,9.575c1.648,5.589-1.921,9.88-6.614,12.48l-1.348-3.067c.248.564-2.927,3.081-3.423,3.4a13.532,13.532,0,0,1-4.425,1.561" fill="none" stroke="#e50019" stroke-miterlimit="10" stroke-width="2"/>
      <path id="Path_5031" data-name="Path 5031" d="M498.259,45.942v6.072a11.268,11.268,0,0,0,6.824,4.115,14.823,14.823,0,0,0,6.557-3.87V46.084" fill="none" stroke="#e50019" stroke-miterlimit="10" stroke-width="2"/>
    </g>
    <path id="Path_5032" data-name="Path 5032" d="M509.548,37.806" transform="translate(-378.35 67.765)" fill="none" stroke="#7a0900" stroke-miterlimit="10" stroke-width="2"/>
    <g id="Group_16364" data-name="Group 16364" transform="translate(-378.35 67.765)">
      <path id="Path_5033" data-name="Path 5033" d="M520.994,74.528V85.717H488.757V74.528" fill="none" stroke="#031731" stroke-miterlimit="10" stroke-width="2"/>
      <path id="Path_5034" data-name="Path 5034" d="M479.98,65.013a16.632,16.632,0,0,1,15.97-12.58h3.4" fill="none" stroke="#031731" stroke-miterlimit="10" stroke-width="2"/>
      <path id="Path_5035" data-name="Path 5035" d="M511.92,52.433h1.84a16.8,16.8,0,0,1,16.55,17.04v12.61a3.6,3.6,0,0,1-3.54,3.64H485.26" fill="none" stroke="#031731" stroke-miterlimit="10" stroke-width="2"/>
      <path id="Path_5036" data-name="Path 5036" d="M501.265,61.523l3.177,15.81L494.2,63.158l1.5-2.586-4.993-7.138" fill="none" stroke="#031731" stroke-linecap="round" stroke-linejoin="round" stroke-width="2"/>
      <path id="Path_5037" data-name="Path 5037" d="M509.306,61.726l-4.864,15.608,10.6-14.175-1.5-2.586,4.993-7.138" fill="none" stroke="#031731" stroke-linecap="round" stroke-linejoin="round" stroke-width="2"/>
    </g>
    <rect id="Rectangle_62" data-name="Rectangle 62" width="8.311" height="4.874" transform="translate(113.344 144.864)" fill="none" stroke="#e50019" stroke-miterlimit="10" stroke-width="2"/>
    <g id="Group_16365" data-name="Group 16365" transform="translate(-378.35 67.765)">
      <path id="Path_5038" data-name="Path 5038" d="M475.072-67.765H438.354a5.844,5.844,0,0,0-5.844,5.844V-40.6a5.843,5.843,0,0,0,5.844,5.844h13.809l4.486,6.026,4.48-6.026h13.943a5.844,5.844,0,0,0,5.844-5.844V-61.921A5.845,5.845,0,0,0,475.072-67.765Z" fill="none" stroke="#e50019" stroke-miterlimit="10" stroke-width="2"/>
      <line id="Line_12" data-name="Line 12" x2="22.045" transform="translate(450.519 -55.03)" fill="none" stroke="#e50019" stroke-miterlimit="10" stroke-width="2"/>
      <line id="Line_13" data-name="Line 13" x2="14.115" transform="translate(395.336 -19.087)" fill="none" stroke="#e50019" stroke-miterlimit="10" stroke-width="2"/>
      <line id="Line_14" data-name="Line 14" x2="14.115" transform="translate(395.336 -24.567)" fill="none" stroke="#e50019" stroke-miterlimit="10" stroke-width="2"/>
      <line id="Line_15" data-name="Line 15" x2="22.045" transform="translate(440.803 -43.776)" fill="none" stroke="#e50019" stroke-miterlimit="10" stroke-width="2"/>
      <path id="Path_5039" data-name="Path 5039" d="M418.7-7.406H393.388l-5.646,5.493a.708.708,0,0,1-1.2-.507V-28.367a4.677,4.677,0,0,1,4.677-4.678H418.7a4.677,4.677,0,0,1,4.678,4.678v16.284A4.677,4.677,0,0,1,418.7-7.406Z" fill="none" stroke="#e50019" stroke-miterlimit="10" stroke-width="2"/>
      <line id="Line_16" data-name="Line 16" x1="14.115" transform="translate(503.347 -19.087)" fill="none" stroke="#e50019" stroke-miterlimit="10" stroke-width="2"/>
      <line id="Line_17" data-name="Line 17" x1="14.115" transform="translate(503.347 -24.567)" fill="none" stroke="#e50019" stroke-miterlimit="10" stroke-width="2"/>
      <path id="Path_5040" data-name="Path 5040" d="M494.092-7.406H519.41l5.646,5.493a.708.708,0,0,0,1.2-.507V-28.367a4.677,4.677,0,0,0-4.677-4.678H494.092a4.677,4.677,0,0,0-4.677,4.678v16.284A4.677,4.677,0,0,0,494.092-7.406Z" fill="none" stroke="#e50019" stroke-miterlimit="10" stroke-width="2"/>
    </g>
  </g>
</svg>
