<svg xmlns="http://www.w3.org/2000/svg" width="147.416" height="135.397" viewBox="0 0 147.416 135.397">
  <g id="ico7" transform="translate(1 1)">
    <g id="Group_16367" data-name="Group 16367" transform="translate(3.449)">
      <path id="Path_5041" data-name="Path 5041" d="M80.406,104.439c-6.129-4.01-16.381-3.824-29.63-2.947A11.755,11.755,0,0,1,39.022,89.738h0A11.754,11.754,0,0,1,50.776,77.985h16.89c8.136,0,15.792,5.981,15.792,14.116C84.121,96.163,82.466,100.693,80.406,104.439Z" transform="translate(-20.113 -77.985)" fill="none" stroke="#031731" stroke-miterlimit="10" stroke-width="2"/>
      <path id="Path_5042" data-name="Path 5042" d="M36.658,104.678c-1.734-4.293-2.542-9.866-.943-14.437.957-2.734,3.658-6.115,6.34-7.207" transform="translate(-22.518 -75.073)" fill="none" stroke="#031731" stroke-miterlimit="10" stroke-width="2"/>
      <path id="Path_5043" data-name="Path 5043" d="M82.188,96.392v23.663a23.35,23.35,0,0,1-46.7,0v-15.93A12.584,12.584,0,0,1,46.356,91.662" transform="translate(-22.151 -70.097)" fill="none" stroke="#031731" stroke-miterlimit="10" stroke-width="2"/>
      <path id="Rectangle_63" data-name="Rectangle 63" d="M3.375,0h3.47a0,0,0,0,1,0,0V11.32a0,0,0,0,1,0,0H3.375A3.375,3.375,0,0,1,0,7.945V3.375A3.375,3.375,0,0,1,3.375,0Z" transform="translate(6.493 31.796)" fill="none" stroke="#031731" stroke-miterlimit="10" stroke-width="2"/>
      <path id="Rectangle_64" data-name="Rectangle 64" d="M3.375,0h3.47a0,0,0,0,1,0,0V11.32a0,0,0,0,1,0,0H3.375A3.375,3.375,0,0,1,0,7.945V3.375A3.375,3.375,0,0,1,3.375,0Z" transform="translate(66.916 43.116) rotate(-180)" fill="none" stroke="#031731" stroke-miterlimit="10" stroke-width="2"/>
      <path id="Path_5044" data-name="Path 5044" d="M68.669,104.305s4.765,7.322,6.126,10.764a47.271,47.271,0,0,1,1.957,6.026" transform="translate(-3.015 -62.806)" fill="none" stroke="#031731" stroke-miterlimit="10" stroke-width="2"/>
      <path id="Path_5045" data-name="Path 5045" d="M34.922,104.305s-6.611,12.932-7.248,15.1c-2.6,8.814,3.029,15.58,10.428,19.678l2.125-4.836c-.391.891,4.615,4.859,5.4,5.369a21.3,21.3,0,0,0,6.977,2.46" transform="translate(-27.03 -62.806)" fill="none" stroke="#031731" stroke-miterlimit="10" stroke-width="2"/>
      <path id="Path_5046" data-name="Path 5046" d="M64.839,122.811v9.575a17.778,17.778,0,0,1-10.76,6.488,23.361,23.361,0,0,1-10.339-6.1v-9.736" transform="translate(-17.392 -52.133)" fill="none" stroke="#031731" stroke-miterlimit="10" stroke-width="2"/>
    </g>
    <path id="Path_5047" data-name="Path 5047" d="M54.992,114.675" transform="translate(-7.454 -56.825)" fill="none" stroke="#031731" stroke-miterlimit="10" stroke-width="2"/>
    <g id="Group_16368" data-name="Group 16368" transform="translate(80.231 57.883)">
      <path id="Path_5048" data-name="Path 5048" d="M122.523,137.842c-.508-11.192-9.027-20.387-19.651-21.186-12.432-.935-22.8,9.4-22.8,22.281a23.309,23.309,0,0,0,2.483,10.495c2.6,5.14,7.858,8.027,10.305,13.323a1.619,1.619,0,0,0,.415.53.962.962,0,0,0-.027.214V171.4c0,3.212,5.105,6.515,5.154,6.614a3.33,3.33,0,0,0,2.961,1.879h.112a3.33,3.33,0,0,0,2.961-1.879c.05-.1,5.156-3.4,5.156-6.614V163.5a.9.9,0,0,0-.047-.277,1.608,1.608,0,0,0,.363-.553,22.147,22.147,0,0,1,4.992-6.78,26.878,26.878,0,0,0,3.221-3.3A23.065,23.065,0,0,0,122.523,137.842Z" transform="translate(-68.219 -105.599)" fill="none" stroke="#b51a1a" stroke-miterlimit="10" stroke-width="2"/>
      <path id="Path_5049" data-name="Path 5049" d="M90.089,138.748a4.473,4.473,0,1,1,4.492-4.454" transform="translate(-65.034 -97.983)" fill="none" stroke="#b51a1a" stroke-miterlimit="10" stroke-width="2"/>
      <path id="Path_5050" data-name="Path 5050" d="M96.128,134.294a4.492,4.492,0,1,1,4.492,4.454" transform="translate(-58.961 -97.983)" fill="none" stroke="#b51a1a" stroke-miterlimit="10" stroke-width="2"/>
      <line id="Line_18" data-name="Line 18" x2="16.869" transform="translate(24.947 40.765)" fill="none" stroke="#b51a1a" stroke-miterlimit="10" stroke-width="2"/>
      <line id="Line_19" data-name="Line 19" y2="21.772" transform="translate(29.547 36.084)" fill="none" stroke="#b51a1a" stroke-miterlimit="10" stroke-width="2"/>
      <line id="Line_20" data-name="Line 20" y2="21.772" transform="translate(37.167 36.084)" fill="none" stroke="#b51a1a" stroke-miterlimit="10" stroke-width="2"/>
      <line id="Line_21" data-name="Line 21" x2="16.087" transform="translate(25.255 57.856)" fill="none" stroke="#b51a1a" stroke-miterlimit="10" stroke-width="2"/>
      <line id="Line_22" data-name="Line 22" x2="11.578" transform="translate(27.42 70.11)" fill="none" stroke="#b51a1a" stroke-miterlimit="10" stroke-width="2"/>
      <line id="Line_23" data-name="Line 23" x2="16.312" transform="translate(25.031 63.983)" fill="none" stroke="#b51a1a" stroke-miterlimit="10" stroke-width="2"/>
      <path id="Path_5051" data-name="Path 5051" d="M108,134.639a14.369,14.369,0,0,0-14.378-14.377" transform="translate(-60.405 -103.485)" fill="none" stroke="#b51a1a" stroke-miterlimit="10" stroke-width="2"/>
      <line id="Line_24" data-name="Line 24" x2="7.165" transform="translate(0 31.154)" fill="none" stroke="#b51a1a" stroke-miterlimit="10" stroke-width="2"/>
      <line id="Line_25" data-name="Line 25" y2="7.165" transform="translate(33.299)" fill="none" stroke="#b51a1a" stroke-miterlimit="10" stroke-width="2"/>
      <line id="Line_26" data-name="Line 26" x2="5.066" y2="5.066" transform="translate(4.632 11.064)" fill="none" stroke="#b51a1a" stroke-miterlimit="10" stroke-width="2"/>
      <line id="Line_27" data-name="Line 27" x1="5.066" y2="5.066" transform="translate(54.327 11.064)" fill="none" stroke="#b51a1a" stroke-miterlimit="10" stroke-width="2"/>
      <line id="Line_28" data-name="Line 28" x2="7.165" transform="translate(59.02 30.043)" fill="none" stroke="#b51a1a" stroke-miterlimit="10" stroke-width="2"/>
    </g>
    <g id="Group_16369" data-name="Group 16369" transform="translate(0 80.919)">
      <path id="Path_5052" data-name="Path 5052" d="M85.029,151.4v17.642H34.2V151.4" transform="translate(-19.444 -116.565)" fill="none" stroke="#031731" stroke-miterlimit="10" stroke-width="2"/>
      <path id="Path_5053" data-name="Path 5053" d="M76.123,129.306h2.895c14.418,0,26.1,12.032,26.1,26.853v19.884a5.667,5.667,0,0,1-5.578,5.741H30.422a5.668,5.668,0,0,1-5.58-5.741V156.159c0-14.821,11.693-26.853,26.1-26.853H56.3" transform="translate(-24.842 -129.306)" fill="none" stroke="#031731" stroke-miterlimit="10" stroke-width="2"/>
      <path id="Path_5054" data-name="Path 5054" d="M52.8,143.058,57.8,167.986l-16.146-22.35,2.372-4.078L36.157,130.3" transform="translate(-18.316 -128.731)" fill="none" stroke="#031731" stroke-linecap="round" stroke-linejoin="round" stroke-width="2"/>
      <path id="Path_5055" data-name="Path 5055" d="M57.555,143.377l-7.669,24.609,16.708-22.35-2.372-4.078L72.1,130.3" transform="translate(-10.398 -128.731)" fill="none" stroke="#031731" stroke-linecap="round" stroke-linejoin="round" stroke-width="2"/>
    </g>
    <rect id="Rectangle_65" data-name="Rectangle 65" width="13.105" height="7.684" transform="translate(19.387 119.806)" fill="none" stroke="#031731" stroke-miterlimit="10" stroke-width="2"/>
  </g>
</svg>
