<svg xmlns="http://www.w3.org/2000/svg" width="138.988" height="141.252" viewBox="0 0 138.988 141.252">
  <g id="ico9" transform="translate(1.004 1)">
    <g id="Group_227" data-name="Group 227" transform="translate(86.844)">
      <path id="Icon_ionic-ios-heart" data-name="Icon ionic-ios-heart" d="M237.952-93.262h-.077a8.779,8.779,0,0,0-7.329,4.011,8.779,8.779,0,0,0-7.329-4.011h-.076a8.723,8.723,0,0,0-8.64,8.718,18.778,18.778,0,0,0,3.688,10.235c4.644,6.349,12.359,11.9,12.359,11.9s7.715-5.553,12.359-11.9a18.778,18.778,0,0,0,3.688-10.235A8.723,8.723,0,0,0,237.952-93.262Z" transform="translate(-214.5 93.262)" fill="none" stroke="#e50019" stroke-miterlimit="10" stroke-width="2"/>
    </g>
    <g id="Layer_2" data-name="Layer 2" transform="translate(0 7.828)">
      <line id="Line_31" data-name="Line 31" y1="0.044" transform="translate(72.983 59.885)" fill="none" stroke="#e50019" stroke-linejoin="round" stroke-width="2"/>
      <g id="Group_16374" data-name="Group 16374">
        <path id="Path_5059" data-name="Path 5059" d="M152.535,16.6l2.894-3.092A9.237,9.237,0,0,1,167.15,12.4c1.72,1.139,3.453,2.825,3.7,4.972.242,2.132-1.106,3.969-2.072,5.745a63.862,63.862,0,0,0-2.9,6.182,1.546,1.546,0,0,0,1.436,2.14q1.975-.01,3.952-.017a4.656,4.656,0,0,1,4.711,4.075,4.523,4.523,0,0,1-4.5,4.972H137.168a1.3,1.3,0,0,1-1.16-1.894l3.709-7.282a3.739,3.739,0,0,0-.763-4.412L136.017,24.1a4.192,4.192,0,0,1-.83-2.214c-.485-1.871-1.135-6.445,1.5-17.64a41.7,41.7,0,0,1,11.07-19.4,102.464,102.464,0,0,1,16.571-13.272c1.834-1.205,3.294-2.516,5.551-2.655.922-.057,1.866,0,2.791,0h34.674c3.861,0,2.054,12.056,1.848,14.043-.633,6.1-1.073,13.258-4.337,18.614a16.541,16.541,0,0,1-2.92,3.582c-1.936,1.778-6.052,3.49-5.317,6.763l3.658,16.3h3.211a6.122,6.122,0,1,1,0,12.243H188.5L179.078,13.1,172.012,3.066V-12.24" transform="translate(-134.744 90.959)" fill="none" stroke="#031731" stroke-miterlimit="10" stroke-width="2"/>
        <path id="Rectangle_75" data-name="Rectangle 75" d="M7.613,0h24.9a7.613,7.613,0,0,1,7.613,7.613V48.025a0,0,0,0,1,0,0H0a0,0,0,0,1,0,0V7.613A7.613,7.613,0,0,1,7.613,0Z" transform="translate(33.275 11.856)" fill="none" stroke="#031731" stroke-miterlimit="10" stroke-width="2"/>
        <path id="Path_5060" data-name="Path 5060" d="M166.816-70.871V-83.4a2.667,2.667,0,0,1,4.746-1.671l8.731,10.855" transform="translate(-131.894 86.073)" fill="none" stroke="#031731" stroke-miterlimit="10" stroke-width="2"/>
        <path id="Path_5061" data-name="Path 5061" d="M202.212-70.871V-83.4a2.667,2.667,0,0,0-4.746-1.671l-8.731,10.855" transform="translate(-129.946 86.073)" fill="none" stroke="#031731" stroke-miterlimit="10" stroke-width="2"/>
        <path id="Path_5062" data-name="Path 5062" d="M184.657-49.99h-.548l-4.228-6.967a2.881,2.881,0,0,1,.865-3.956,3.232,3.232,0,0,1,1.675-.464h4.887a3.207,3.207,0,0,1,.461.033,2.906,2.906,0,0,1,1.788,4.6Z" transform="translate(-130.772 88.268)" fill="none" stroke="#031731" stroke-miterlimit="10" stroke-width="2"/>
        <path id="Path_5063" data-name="Path 5063" d="M184.909-51.462a5.1,5.1,0,0,1-5.1,5.1,5.1,5.1,0,0,1-5.1-5.1" transform="translate(-131.193 89.149)" fill="none" stroke="#031731" stroke-miterlimit="10" stroke-width="2"/>
        <path id="Path_5064" data-name="Path 5064" d="M194.254-51.462a5.1,5.1,0,0,1-5.1,5.1,5.1,5.1,0,0,1-5.1-5.1" transform="translate(-130.362 89.149)" fill="none" stroke="#031731" stroke-miterlimit="10" stroke-width="2"/>
        <circle id="Ellipse_56" data-name="Ellipse 56" cx="2.514" cy="2.514" r="2.514" transform="translate(41.66 20.41)" fill="none" stroke="#031731" stroke-miterlimit="10" stroke-width="2"/>
        <circle id="Ellipse_57" data-name="Ellipse 57" cx="2.514" cy="2.514" r="2.514" transform="translate(60.66 20.41)" fill="none" stroke="#031731" stroke-miterlimit="10" stroke-width="2"/>
        <path id="Path_5065" data-name="Path 5065" d="M202.151-36.311l22.5-19.842a7.133,7.133,0,0,1,4.719-1.784h3.325a6.448,6.448,0,0,1,6.457,6.446v1.949a6.457,6.457,0,0,1-6.457,6.457h-6.022v-.2L203.741-20.348" transform="translate(-128.753 88.574)" fill="none" stroke="#031731" stroke-linejoin="round" stroke-width="2"/>
      </g>
      <path id="Path_5066" data-name="Path 5066" d="M236.641-21.246" transform="translate(-125.688 91.835)" fill="none" stroke="#e50019" stroke-miterlimit="10" stroke-width="2"/>
      <path id="Path_5067" data-name="Path 5067" d="M232.98-14.647h-10.1a5.69,5.69,0,0,1-5.684-5.695,5.7,5.7,0,0,1,1.666-4.018,5.634,5.634,0,0,1,4.018-1.666H238.37" transform="translate(-127.417 91.41)" fill="none" stroke="#e50019" stroke-miterlimit="10" stroke-width="2"/>
      <path id="Path_5068" data-name="Path 5068" d="M235.374-34.138H224.337a5.679,5.679,0,0,0-4.029,1.666,5.705,5.705,0,0,0-1.666,4.029,5.669,5.669,0,0,0,1.459,3.8" transform="translate(-127.288 90.689)" fill="none" stroke="#e50019" stroke-miterlimit="10" stroke-width="2"/>
      <path id="Path_5069" data-name="Path 5069" d="M252.259-33.831,233.8-12.617l-.375.376H217.927a5.69,5.69,0,0,0-5.69,5.689h0a5.691,5.691,0,0,0,5.69,5.69H232.39a4.218,4.218,0,0,0,1.946-.476l18.4-9.563a8.9,8.9,0,0,0,3.873-3.95l7.612-15.38a5.942,5.942,0,0,0,.616-2.634V-51.023a2.109,2.109,0,0,0-2.109-2.109H259a10.339,10.339,0,0,0-7.735,3.479L235.539-32.266a5.174,5.174,0,0,0,.009,6.876h0a5.175,5.175,0,0,0,7.8-.083l8.163-9.107" transform="translate(-127.857 89.001)" fill="none" stroke="#e50019" stroke-miterlimit="10" stroke-width="2"/>
    </g>
  </g>
</svg>
