<svg id="logo_petnet" xmlns="http://www.w3.org/2000/svg" width="144.726" height="117.253" viewBox="0 0 144.726 117.253">
  <path id="Path_1728" data-name="Path 1728" d="M475.3,103.086a35.323,35.323,0,0,1-10,4.671,43.74,43.74,0,0,1-11.764,1.435,27.683,27.683,0,0,1-9.963-1.729,24.815,24.815,0,0,1-7.8-4.672,21.235,21.235,0,0,1-5.122-6.877,19.5,19.5,0,0,1-1.84-8.35,24.137,24.137,0,0,1,1.921-9.858,21.876,21.876,0,0,1,5.2-7.357,22.545,22.545,0,0,1,7.642-4.6,27.153,27.153,0,0,1,9.323-1.582,25.253,25.253,0,0,1,13.884,3.753,23.131,23.131,0,0,1,8.762,10L451.61,94.478a6.784,6.784,0,0,0,2.32.59,26.308,26.308,0,0,0,2.641.145,14.226,14.226,0,0,0,6.2-1.213,23.229,23.229,0,0,0,4.6-2.906ZM458.172,78.956a5.753,5.753,0,0,0-2.44-1.692,9.472,9.472,0,0,0-3-.44,6.745,6.745,0,0,0-2.92.624,7.169,7.169,0,0,0-2.28,1.692,7.81,7.81,0,0,0-1.48,2.392,7.347,7.347,0,0,0-.52,2.722,6.123,6.123,0,0,0,.2,1.874,8.441,8.441,0,0,0,.52,1.143Z" transform="translate(-380.793 -53.502)" fill="#fff"/>
  <path id="Path_1729" data-name="Path 1729" d="M486.5,112.121q-1.163.035-2.521.036-7.683,0-11.963-3.2t-4.282-10.409V81.113l-4.4.074.48-12.727h3.759V63.6L484.936,56.4V68.46l6.482-.882-.879,13.535H485.1V93.987a4.515,4.515,0,0,0,.681,2.943c.451.491,1.481.734,3.08.734a15.724,15.724,0,0,0,1.681-.071,8.56,8.56,0,0,0,1.2-.222l-2.8,14.567Q487.656,112.084,486.5,112.121Z" transform="translate(-367.946 -56.395)" fill="#fff"/>
  <path id="Path_1730" data-name="Path 1730" d="M474.251,147.4a35.3,35.3,0,0,1-10,4.671,43.684,43.684,0,0,1-11.764,1.437,27.677,27.677,0,0,1-9.963-1.73,24.764,24.764,0,0,1-7.8-4.672,21.217,21.217,0,0,1-5.122-6.877,19.478,19.478,0,0,1-1.84-8.35,24.114,24.114,0,0,1,1.921-9.858,21.838,21.838,0,0,1,5.2-7.356,22.5,22.5,0,0,1,7.642-4.6,27.146,27.146,0,0,1,9.323-1.581,25.259,25.259,0,0,1,13.883,3.751,23.163,23.163,0,0,1,8.765,10L450.565,138.8a6.754,6.754,0,0,0,2.32.589,26.3,26.3,0,0,0,2.64.145,14.257,14.257,0,0,0,6.2-1.212,23.232,23.232,0,0,0,4.6-2.907Zm-17.125-24.131a5.744,5.744,0,0,0-2.441-1.69,9.455,9.455,0,0,0-3-.442,6.776,6.776,0,0,0-2.921.624,7.221,7.221,0,0,0-2.28,1.692,7.818,7.818,0,0,0-1.48,2.393,7.374,7.374,0,0,0-.52,2.721,6.134,6.134,0,0,0,.2,1.876,8.274,8.274,0,0,0,.52,1.142Z" transform="translate(-381.182 -37.013)" fill="#fff"/>
  <path id="Path_1731" data-name="Path 1731" d="M485.45,156.438q-1.163.035-2.521.036-7.683,0-11.963-3.2t-4.282-10.41V125.431l-4.4.073.48-12.727h3.76V107.92l17.365-7.207v12.063l6.482-.882-.879,13.537h-5.442V138.3a4.512,4.512,0,0,0,.681,2.943c.451.491,1.48.735,3.08.735a15.677,15.677,0,0,0,1.681-.073,8.565,8.565,0,0,0,1.2-.221l-2.8,14.566Q486.609,156.4,485.45,156.438Z" transform="translate(-368.336 -39.906)" fill="#fff"/>
  <circle id="Ellipse_50" data-name="Ellipse 50" cx="8.777" cy="8.777" r="8.777" transform="translate(127.172 99.7)" fill="#f05a28"/>
  <path id="Path_1732" data-name="Path 1732" d="M419.32,116.791c-.1,0-.112.038-.089.095C419.4,116.827,419.45,116.791,419.32,116.791Z" transform="translate(-384.358 -33.924)" fill="none"/>
  <path id="Path_1733" data-name="Path 1733" d="M437.5,116.508a14.486,14.486,0,0,0-2.835-4.9,12.761,12.761,0,0,0-4.568-3.266,15.7,15.7,0,0,0-6.259-1.166,16.128,16.128,0,0,0-6.387,1.244,15.3,15.3,0,0,0-5.711,4.743h-.338v-5.988L393.812,108.5l.676,44.249,12.445.805a5.9,5.9,0,0,1-1.855-1.6,8.336,8.336,0,0,1-1.534-4.153,11.84,11.84,0,0,1,.093-2.422c.029-.263.294-.5.45-.756a4.048,4.048,0,0,1,.5.707c.461,1.083.848,2.2,1.342,3.266a7.446,7.446,0,0,0,2.14,2.743c.1-4.492,1.674-8.632,3.137-12.788.766-2.176,1.667-4.312,2.508-6.465.053-.14.115-.276.187-.445.123.029.235.047.34.078q3.073.926,6.146,1.85c.471.141.941.285,1.413.425a.512.512,0,0,1,.429.513c.24,2.009.5,4.013.756,6.021l.019.154q.362,2.853.72,5.706c.2,1.561.383,3.126.6,4.686a17.968,17.968,0,0,1,.222,2.666l13.929-1.067V122.574A18.383,18.383,0,0,0,437.5,116.508Zm-8.729,3.86c.13,0,.078.036-.089.095C428.661,120.406,428.673,120.368,428.774,120.368Zm-6.816,12.214c-.528-.1-1.044-.23-1.557-.361-2.084-.528-4.074-1.255-6.1-1.983.4-1.416.752-2.814,1.207-4.181.535-1.6,1.139-3.189,1.769-4.761a8.147,8.147,0,0,1,.923-1.522c.191-.272.5-.58.863-.423a1.167,1.167,0,0,1,.561.7,8.1,8.1,0,0,1,.2,1.448c.022.228,0,.458,0,.689.648.054,1.262.1,1.877.158l.086.008a1.576,1.576,0,0,1,1.229.7c.321.487.637.977.926,1.479a.483.483,0,0,0,.473.269c.971.036,1.948.051,2.909.17,1.157.143,1.505.547,1.441,1.619a7.818,7.818,0,0,1-.332,1.587,1.8,1.8,0,0,1-1.213,1.262,26.573,26.573,0,0,1-3.259,1C422.678,130.705,421.967,131.3,421.957,132.582Z" transform="translate(-393.812 -37.5)" fill="#fff"/>
  <path id="Path_1734" data-name="Path 1734" d="M442.531,78.71a23.682,23.682,0,0,0-4.323-7.242,21.509,21.509,0,0,0-6.786-5.163,19.773,19.773,0,0,0-8.847-1.969,16.473,16.473,0,0,0-6.665,1.227,17.666,17.666,0,0,0-5.373,3.825V64.336l-16.724,1.338.888,56.971,17.048-1.336-.484-14.781a11.591,11.591,0,0,0,5.13,2.674,23.785,23.785,0,0,0,5.373.668,21.065,21.065,0,0,0,9.049-1.932,22.479,22.479,0,0,0,7.07-5.125,23.262,23.262,0,0,0,4.646-24.1ZM426.412,88.7a8.787,8.787,0,0,1-4.889,4.381,11.3,11.3,0,0,1-3.595.966,9.84,9.84,0,0,1-3.231-.222,7.163,7.163,0,0,1-2.626-1.227,6.056,6.056,0,0,1-1.778-2.117,5.515,5.515,0,0,1-.29-4.8c-.848-2.022-1.319-8.282-.436-7.1,1.153,1.553,4.467,2.759,4.467,2.759h0c.386-.215.75-.4,1.187-.594a10.331,10.331,0,0,1,6.056-.826,17.763,17.763,0,0,0,3.235-3.607c.954-1.685,1.312,6.229,1.312,6.229h0a5.926,5.926,0,0,1,.587,6.152Z" transform="translate(-393.812 -53.44)" fill="#fff"/>
</svg>
