<svg id="philosophybg" xmlns="http://www.w3.org/2000/svg" xmlns:xlink="http://www.w3.org/1999/xlink" width="650" height="1861" viewBox="0 0 650 1861">
  <defs>
    <clipPath id="clip-path">
      <rect id="Rectangle_79" data-name="Rectangle 79" width="650" height="1861" transform="translate(-14 5264)" fill="#fff" stroke="#707070" stroke-width="1"/>
    </clipPath>
  </defs>
  <g id="Mask_Group_26" data-name="Mask Group 26" transform="translate(14 -5264)" clip-path="url(#clip-path)">
    <path id="Path_5057" data-name="Path 5057" d="M388.452,1281.326H1876.3c26.8-51.294,49.052-104.568,57.112-161.6,12.189-86.236-15.859-184.208-89.836-229.576-27.432-16.824-59.739-25.788-84.08-46.877-42.786-37.074-49.63-101.828-39.668-157.717s33.349-109,39.71-165.414c10.406-92.308-29.064-188.776-101.07-247.023s-174.213-76.386-261.713-46.442c-84.231,28.827-154.371,98.271-242.9,107.225-90.623,9.169-173.217-47.165-249.514-97.154-95.294-62.444-320.225-98.889-430.664-126.3C405.6,93.548,257.3,385.561,188.51,397.549Z" transform="matrix(0.643, 0.766, -0.766, 0.643, -247.58, 4842.209)" fill="#f4f7fb"/>
  </g>
</svg>
