<svg id="spacer" xmlns="http://www.w3.org/2000/svg" width="362.716" height="60.073" viewBox="0 0 362.716 60.073">
  <path id="Path_1735" data-name="Path 1735" d="M388,68.628h-4.54l-6.848,21.253c-.745,2.309-3.9,2.354-4.414.236l-6.789-42.438-2.385,14.427a2.909,2.909,0,0,1-1.859,2.119H25.349l.032.044.028-4.581H358.83l4.359-25.106c.271-1.471.446-2.654,2.221-2.973a1.988,1.988,0,0,1,1.293.293,2.461,2.461,0,0,1,1.181,1.952c2.428,15.161,4.889,30.69,7.317,45.852l4.7-14.594a2.389,2.389,0,0,1,2.014-1.07l6.127.042.025,4.562L388,68.628Z" transform="translate(-25.349 -31.588)" fill="#e50019" fill-rule="evenodd"/>
</svg>
